<svg width="612" height="569" viewBox="0 0 612 569" fill="none" xmlns="http://www.w3.org/2000/svg">
<path d="M89.622 525.658C209.127 582.609 402.873 582.627 522.378 525.658C641.883 468.689 641.865 376.359 522.378 319.408C402.891 262.456 209.127 262.456 89.622 319.408C-29.8827 376.359 -29.8653 468.706 89.622 525.658Z" fill="#F5F5F5"/>
<path d="M521.963 483.568C543.972 483.568 561.815 475.066 561.815 464.579C561.815 454.091 543.972 445.589 521.963 445.589C499.953 445.589 482.11 454.091 482.11 464.579C482.11 475.066 499.953 483.568 521.963 483.568Z" fill="#EBEBEB"/>
<path d="M80.5527 467.301L94.6519 459.168C102.524 452.744 108.515 444.314 111.994 434.767C116.347 422.767 115.74 413.645 112.618 409.066C108.786 403.43 98.8487 404.419 98.4498 416.281C97.6174 439.658 90.8019 455.873 80.5527 467.301Z" fill="#00BFBA"/>
<path opacity="0.2" d="M80.5527 467.301L94.6519 459.168C102.524 452.744 108.515 444.314 111.994 434.767C116.347 422.767 115.74 413.645 112.618 409.066C108.786 403.43 98.8487 404.419 98.4498 416.281C97.6174 439.658 90.8019 455.873 80.5527 467.301Z" fill="black"/>
<path d="M80.5528 468.168C80.3692 468.166 80.191 468.106 80.044 467.996C79.897 467.886 79.7886 467.732 79.7346 467.556C79.6806 467.381 79.6837 467.193 79.7435 467.019C79.8033 466.846 79.9166 466.695 80.0672 466.59C112.67 444.045 106.358 412.604 106.289 412.292C106.265 412.178 106.263 412.061 106.285 411.946C106.306 411.832 106.35 411.723 106.414 411.625C106.477 411.528 106.56 411.444 106.656 411.378C106.752 411.313 106.86 411.267 106.974 411.243C107.087 411.219 107.205 411.218 107.319 411.239C107.434 411.261 107.543 411.304 107.64 411.368C107.737 411.432 107.821 411.514 107.887 411.61C107.953 411.706 107.999 411.814 108.023 411.928C108.023 412.257 114.682 444.774 81.1077 468.012C80.9448 468.124 80.7498 468.178 80.5528 468.168Z" fill="white"/>
<path d="M52.3023 483.62C52.3023 483.62 47.3945 479.632 48.5738 474.221C49.753 468.81 52.9266 464.926 47.4986 457.954C42.0705 450.982 40.5617 441.687 47.0477 436.658C51.9902 432.756 59.7074 438.271 62.4822 427.987C64.5285 420.46 63.8348 403.794 73.4251 398.245C83.0153 392.695 89.033 401.054 87.5242 412.361C86.2062 422.472 84.3333 432.201 85.79 434.906C88.5994 440.109 93.4032 439.398 93.1778 448.901C92.987 457.746 84.6107 465.064 84.6107 465.064L52.3023 483.62Z" fill="#00BFBA"/>
<path d="M68.4131 475.14C68.2011 475.138 67.997 475.06 67.8378 474.92C67.6787 474.78 67.5751 474.587 67.546 474.377C65.0661 453.827 71.0144 418.344 75.8702 407.8C75.9111 407.684 75.9766 407.577 76.0622 407.487C76.1479 407.398 76.2517 407.328 76.3667 407.281C76.4818 407.235 76.6053 407.215 76.7291 407.22C76.8528 407.226 76.9739 407.258 77.0842 407.315C77.1877 407.362 77.2808 407.428 77.3581 407.512C77.4353 407.595 77.4951 407.693 77.5339 407.799C77.5727 407.906 77.5897 408.019 77.584 408.133C77.5782 408.246 77.5498 408.357 77.5004 408.459C72.6966 418.865 66.9564 454.451 69.3323 474.1C69.3566 474.327 69.2901 474.555 69.1472 474.734C69.0042 474.912 68.7965 475.027 68.5692 475.053L68.4131 475.14Z" fill="white"/>
<path d="M67.9446 459.133C67.8119 459.14 67.68 459.11 67.5631 459.046C61.5454 456.116 57.7301 445.658 57.574 445.173C57.5315 445.065 57.5111 444.95 57.5139 444.834C57.5168 444.718 57.5428 444.604 57.5905 444.498C57.6382 444.392 57.7067 444.297 57.7917 444.219C57.8768 444.14 57.9768 444.079 58.0858 444.039C58.1949 444 58.3107 443.983 58.4265 443.989C58.5422 443.995 58.6556 444.024 58.7599 444.075C58.8641 444.126 58.9572 444.197 59.0335 444.284C59.1098 444.371 59.1679 444.473 59.2042 444.583C59.2042 444.687 62.9328 454.815 68.3262 457.434C68.5031 457.519 68.6456 457.663 68.7305 457.84C68.8153 458.017 68.8373 458.218 68.793 458.41C68.7486 458.601 68.6405 458.772 68.4864 458.894C68.3322 459.016 68.1412 459.082 67.9446 459.081V459.133Z" fill="white"/>
<path d="M67.8404 466.07C67.6667 466.07 67.497 466.017 67.3544 465.918C67.2117 465.819 67.103 465.678 67.0427 465.515C66.9564 465.303 66.9572 465.066 67.0449 464.855C67.1325 464.644 67.3 464.476 67.5109 464.388C77.6387 460.33 83.9513 448.277 84.0206 448.138C84.1264 447.934 84.3092 447.779 84.5287 447.709C84.7482 447.639 84.9866 447.66 85.1912 447.765C85.3959 447.871 85.5502 448.054 85.6201 448.274C85.69 448.493 85.6699 448.731 85.5641 448.936C85.2866 449.456 78.8874 461.7 68.2219 466.001C68.1031 466.057 67.9715 466.081 67.8404 466.07Z" fill="white"/>
<path d="M421.847 372.769C421.847 372.769 414.268 360.491 413.523 347.155C412.777 333.819 415.708 328.269 419.731 326.674C423.754 325.078 424.067 329.986 426.13 332.882C428.194 335.778 432.408 334.131 433.969 325.096C435.53 316.06 441.218 300.817 453.045 297.851C466.052 294.626 459.08 309.887 455.803 315.835C452.525 321.783 449.993 329.9 452.143 332.102C454.294 334.304 457.641 330.229 460.815 334.01C464.682 338.571 452.664 354.994 445.762 358.965L421.847 372.769Z" fill="#00BFBA"/>
<path d="M432.235 367.619C432.121 367.614 432.009 367.587 431.905 367.54C431.802 367.492 431.709 367.424 431.631 367.34C431.554 367.257 431.494 367.158 431.455 367.051C431.415 366.944 431.397 366.831 431.402 366.717C432.576 345.264 439.267 324.477 450.825 306.366C450.891 306.272 450.975 306.192 451.072 306.131C451.169 306.07 451.278 306.029 451.391 306.011C451.505 305.993 451.621 305.999 451.732 306.027C451.844 306.055 451.948 306.106 452.039 306.175C452.221 306.311 452.343 306.511 452.378 306.735C452.414 306.959 452.361 307.187 452.23 307.372C440.878 325.218 434.308 345.685 433.154 366.804C433.147 366.918 433.118 367.029 433.068 367.132C433.018 367.234 432.949 367.326 432.863 367.402C432.778 367.478 432.678 367.536 432.571 367.573C432.463 367.61 432.348 367.626 432.235 367.619Z" fill="white"/>
<path d="M433.222 357.37C433.077 357.368 432.935 357.332 432.806 357.265C427.95 354.577 425.262 346.6 425.158 346.27C425.12 346.162 425.103 346.048 425.11 345.933C425.116 345.819 425.145 345.707 425.195 345.603C425.245 345.5 425.315 345.408 425.401 345.332C425.487 345.256 425.587 345.198 425.696 345.161C425.914 345.09 426.152 345.108 426.357 345.212C426.562 345.316 426.717 345.497 426.788 345.716C426.788 345.716 429.39 353.398 433.725 355.739C433.922 355.855 434.065 356.043 434.127 356.263C434.188 356.482 434.162 356.717 434.055 356.919C433.976 357.068 433.855 357.19 433.707 357.271C433.559 357.351 433.39 357.385 433.222 357.37Z" fill="white"/>
<path d="M434.073 352.115C433.881 352.113 433.695 352.047 433.544 351.928C433.393 351.808 433.286 351.642 433.24 351.456C433.212 351.347 433.205 351.233 433.222 351.121C433.238 351.009 433.276 350.901 433.334 350.804C433.392 350.708 433.469 350.623 433.56 350.556C433.651 350.49 433.755 350.442 433.865 350.415C446.386 347.242 450.721 340.686 450.756 340.617C450.817 340.52 450.897 340.436 450.991 340.371C451.085 340.305 451.191 340.258 451.303 340.233C451.415 340.208 451.531 340.205 451.643 340.225C451.756 340.245 451.864 340.287 451.961 340.348C452.058 340.41 452.142 340.49 452.208 340.584C452.274 340.677 452.32 340.783 452.345 340.895C452.37 341.007 452.373 341.123 452.353 341.236C452.333 341.349 452.291 341.457 452.23 341.553C452.039 341.848 447.53 348.733 434.298 352.097L434.073 352.115Z" fill="white"/>
<path d="M233.164 345.82C233.164 345.82 216.533 341.762 215.666 310.615C214.746 277.006 219.741 237.778 200.058 234.604C180.374 231.431 169.449 255.415 169.691 283.423C169.917 307.944 179.802 361.185 233.094 371.625L233.164 345.82Z" fill="#00BFBA"/>
<path opacity="0.2" d="M233.164 345.82C233.164 345.82 216.533 341.762 215.666 310.615C214.746 277.006 219.741 237.778 200.058 234.604C180.374 231.431 169.449 255.415 169.691 283.423C169.917 307.944 179.802 361.185 233.094 371.625L233.164 345.82Z" fill="black"/>
<path d="M233.163 368.434H233.007C221.023 366.249 211.26 359.641 203.993 348.82C182.455 316.685 189.235 256.681 191.472 246.206C191.523 245.983 191.657 245.788 191.848 245.662C192.039 245.536 192.271 245.489 192.496 245.53C192.72 245.584 192.915 245.722 193.041 245.915C193.167 246.109 193.214 246.343 193.172 246.571C190.97 256.976 184.223 316.217 205.433 347.849C208.52 352.754 212.593 356.964 217.394 360.212C222.194 363.461 227.617 365.676 233.319 366.717C233.432 366.738 233.54 366.781 233.636 366.844C233.733 366.907 233.816 366.988 233.88 367.083C233.945 367.178 233.99 367.286 234.013 367.398C234.035 367.511 234.035 367.627 234.013 367.74C233.976 367.937 233.87 368.115 233.715 368.242C233.559 368.369 233.364 368.437 233.163 368.434Z" fill="white"/>
<path d="M233.163 448.364C215.977 450.688 188.074 450.653 171.963 437.958C155.852 425.264 159.216 414.338 165.408 409.777C171.599 405.216 176.975 400.014 166.327 389.886C155.679 379.758 138.579 363.491 133.03 339.091C127.48 314.69 130.22 299.429 141.111 294.348C151.673 289.423 154.465 297.262 160.933 313.424C167.402 329.587 181.952 315.731 194.404 320.778C206.855 325.824 206.352 335.813 207.133 344.398C207.913 352.982 212.023 355.358 219.082 355.358C226.14 355.358 233.163 359.416 233.163 367.497V448.364Z" fill="#00BFBA"/>
<path d="M233.163 420.027C233.089 420.043 233.012 420.043 232.937 420.027C232.192 419.819 214.416 414.651 188.524 390.875C160.95 365.555 147.944 327.576 147.805 327.194C147.738 326.976 147.759 326.74 147.862 326.536C147.966 326.333 148.144 326.177 148.36 326.102C148.576 326.03 148.812 326.046 149.016 326.146C149.221 326.247 149.377 326.424 149.452 326.639C149.574 327.021 162.459 364.584 189.704 389.591C215.231 413.055 233.215 418.31 233.406 418.362C233.515 418.394 233.617 418.447 233.706 418.518C233.795 418.589 233.868 418.678 233.923 418.777C233.978 418.877 234.013 418.987 234.025 419.1C234.037 419.213 234.027 419.328 233.995 419.437C233.939 419.612 233.828 419.764 233.677 419.871C233.527 419.977 233.347 420.032 233.163 420.027Z" fill="white"/>
<path d="M195.756 396.91C195.582 396.912 195.411 396.86 195.268 396.761C195.125 396.661 195.017 396.519 194.959 396.355C189.392 382.065 188.126 351.491 188.022 350.19C188.017 349.961 188.101 349.739 188.256 349.571C188.411 349.403 188.626 349.301 188.854 349.288C189.081 349.291 189.298 349.378 189.464 349.532C189.631 349.685 189.735 349.895 189.756 350.12C189.756 350.433 191.057 381.701 196.519 395.73C196.561 395.837 196.581 395.952 196.579 396.066C196.576 396.181 196.55 396.294 196.504 396.399C196.457 396.504 196.39 396.599 196.306 396.677C196.222 396.756 196.124 396.817 196.016 396.858C195.933 396.888 195.845 396.905 195.756 396.91Z" fill="white"/>
<path d="M195.618 417.46C194.019 417.473 192.421 417.391 190.832 417.217C190.718 417.204 190.608 417.168 190.508 417.111C190.408 417.055 190.32 416.98 190.249 416.89C190.178 416.799 190.126 416.696 190.095 416.586C190.064 416.475 190.055 416.36 190.069 416.246C190.082 416.132 190.118 416.022 190.175 415.922C190.231 415.822 190.306 415.734 190.396 415.663C190.486 415.593 190.59 415.54 190.7 415.509C190.811 415.478 190.926 415.469 191.04 415.483C191.196 415.483 207.342 417.321 214.747 409.777C214.824 409.686 214.919 409.612 215.026 409.559C215.133 409.506 215.25 409.476 215.37 409.471C215.489 409.465 215.608 409.485 215.72 409.527C215.831 409.57 215.933 409.636 216.018 409.719C216.103 409.803 216.17 409.904 216.214 410.015C216.258 410.126 216.279 410.245 216.276 410.364C216.272 410.484 216.244 410.601 216.192 410.709C216.141 410.817 216.068 410.913 215.978 410.991C210.619 416.524 201.272 417.46 195.618 417.46Z" fill="white"/>
<path d="M183.13 89.0691L181.258 78.2649L171.615 84.6121C170.734 82.878 169.485 81.357 167.956 80.1552L172.569 67.6689L163.898 65.7439L157.551 77.8834C155.254 78.2708 153.028 78.9954 150.943 80.0338L148.186 70.8772L137.885 78.976L138.561 89.7281C136.463 92.0779 134.561 94.5951 132.873 97.2546L124.375 96.821L118.41 110.192L125.711 113.313C124.948 116.079 124.466 118.914 124.271 121.776L114.993 130.309L116.849 141.13L126.508 134.783C127.384 136.516 128.634 138.032 130.168 139.223L125.641 151.726L134.312 153.634L143.4 144.789C145.498 144.46 144.978 140.506 147.267 139.379L150.024 148.501L160.308 140.419L160.048 136.188C162.129 133.864 170.002 128.748 171.702 126.077L173.835 122.609L179.801 109.238L177.026 104.209L173.939 97.6535L183.13 89.0691ZM151.654 124.638C143.746 130.846 141.249 132.216 139.914 123.909C138.578 115.603 143.105 102.977 151.013 96.7517C158.921 90.5258 161.938 90.0923 163.36 98.3818C164.782 106.671 159.58 118.499 151.654 124.638Z" fill="#E0E0E0"/>
<path d="M163.967 65.7439L175.222 72.2299L168.875 84.3347L157.62 77.8487L163.967 65.7439Z" fill="#F5F5F5"/>
<path d="M192.513 84.751L182.87 91.0982L171.615 84.6122L181.257 78.265L192.513 84.751Z" fill="#F5F5F5"/>
<path d="M190.969 115.672L183.668 112.568L172.413 106.082L179.714 109.186L190.969 115.672Z" fill="#E0E0E0"/>
<path d="M125.624 151.726L136.879 158.195L141.492 145.709L130.237 139.223L125.624 151.726Z" fill="#E0E0E0"/>
<path d="M161.176 154.987L149.938 148.501L147.181 139.379L158.436 145.865L161.176 154.987Z" fill="#E0E0E0"/>
<path d="M194.368 95.5552L192.512 84.751L182.87 91.0982C181.983 89.3633 180.728 87.8425 179.194 86.6413L183.807 74.155L175.222 72.23L168.858 84.3695C166.561 84.7569 164.335 85.4815 162.25 86.5199L159.51 77.3979L149.209 85.4967L149.885 96.2489C147.785 98.6153 145.883 101.15 144.197 103.827L135.682 103.394L129.716 116.765L137.017 119.886C136.262 122.659 135.78 125.5 135.578 128.367L126.317 136.777L128.173 147.599L137.815 141.252C138.703 142.982 139.958 144.497 141.492 145.691L136.879 158.178L145.55 160.103L151.897 147.963C154.202 147.58 156.436 146.849 158.522 145.795L161.262 154.917L171.563 146.836L170.887 136.084C172.984 133.734 174.887 131.217 176.575 128.557L185.09 128.973L191.056 115.603L183.651 112.498C184.418 109.727 184.906 106.886 185.107 104.018L194.368 95.5552ZM162.927 131.193C155.036 137.402 147.475 135.72 146.035 127.43C144.596 119.14 149.851 107.365 157.759 101.157C165.667 94.9482 173.211 96.6477 174.65 104.937C176.089 113.227 170.835 124.985 162.927 131.193Z" fill="#EBEBEB"/>
<path d="M159.51 77.3632L148.255 70.8772L137.954 78.976L149.209 85.462L159.51 77.3632Z" fill="#F5F5F5"/>
<path d="M137.954 78.9761L138.63 89.7282L149.885 96.2142L149.209 85.462L137.954 78.9761Z" fill="#E0E0E0"/>
<path d="M144.197 103.741L132.942 97.2546L124.444 96.8384L135.682 103.324L144.197 103.741Z" fill="#F5F5F5"/>
<path d="M124.444 96.8384L118.479 110.192L129.716 116.678L135.682 103.324L124.444 96.8384Z" fill="#E0E0E0"/>
<path d="M135.578 128.262L124.341 121.776L115.062 130.309L126.3 136.795L135.578 128.262Z" fill="#F5F5F5"/>
<path d="M128.173 147.616L116.918 141.13L115.062 130.309L126.3 136.795L128.173 147.616Z" fill="#E0E0E0"/>
<path d="M175.223 72.2299L163.968 65.7439L172.569 67.6689L183.807 74.1548L175.223 72.2299Z" fill="#F5F5F5"/>
<path d="M132.734 40.0256V23.88L119.884 29.6723C119.203 26.933 118.028 24.3412 116.415 22.0244L124.514 5.70545L114.629 -0.00012207L104.536 15.1743C101.723 14.9285 98.8892 15.2049 96.177 15.9893L94.7549 1.95955L80.7771 10.041L79.3724 25.6489C76.3304 28.3444 73.5332 31.3042 71.0135 34.4934L60.9204 31.025L51.0354 48.159L59.1168 55.0959C57.6235 58.8721 56.463 62.7716 55.6484 66.7498L42.7979 75.7851V91.9479L55.6484 86.1557C56.329 88.895 57.5045 91.4868 59.1168 93.8036L51.07 110.14L60.9551 115.845L71.0482 100.671C73.8609 100.916 76.6947 100.64 79.4071 99.856L80.8118 113.886L94.7896 105.804L96.2117 90.1964C100.574 88.6046 104.439 85.8885 107.415 82.3231L114.664 84.8724L124.549 67.7556L118.479 62.553C119.797 58.2146 120.285 53.6668 119.918 49.1475L132.734 40.0256ZM87.766 80.3634C77.0486 86.5545 70.4239 82.0976 70.4239 69.7673C70.4239 57.4371 79.2857 42.1933 90.0205 36.0022C100.755 29.811 107.241 34.268 107.241 46.7023C107.241 59.1366 98.5008 74.1549 87.766 80.3634Z" fill="#E0E0E0"/>
<path d="M125.867 6.4685L114.629 -0.00012207L104.536 15.1743L115.774 21.6602L125.867 6.4685Z" fill="#F5F5F5"/>
<path d="M143.989 30.366L132.734 23.88L119.884 29.6723L131.139 36.1582L143.989 30.366Z" fill="#F5F5F5"/>
<path d="M92.0145 120.372L80.7768 113.886L79.3721 99.856L90.6098 106.342L92.0145 120.372Z" fill="#E0E0E0"/>
<path d="M51.0176 110.14L62.2726 116.626L70.3714 100.307L59.1164 93.8209L51.0176 110.14Z" fill="#E0E0E0"/>
<path d="M143.989 46.5982V30.4527L131.139 36.1929C130.465 33.4512 129.289 30.8581 127.67 28.545L135.769 12.2261L125.884 6.50317L115.791 21.6949C112.978 21.4406 110.143 21.7171 107.432 22.51L106.01 8.4455L92.032 16.5269L90.61 32.1349C87.5723 34.8349 84.7754 37.7942 82.2511 40.9794L72.1579 37.5109L62.2729 54.645L70.3717 61.5818C68.8706 65.3554 67.7098 69.2555 66.9033 73.2358L54.0527 82.271V98.4339L66.9033 92.6416C67.5764 95.3835 68.7524 97.9767 70.3717 100.29L62.2729 116.608L72.1579 122.314L82.2511 107.14C85.0638 107.385 87.8977 107.109 90.61 106.325L92.032 120.354L106.01 112.273L107.415 96.665C110.457 93.9695 113.254 91.0098 115.773 87.8205L125.867 91.2889L135.752 74.1722L127.653 67.2354C129.154 63.4617 130.314 59.5616 131.121 55.5815L143.989 46.5982ZM99.0209 86.9361C88.2861 93.1272 79.5804 88.098 79.5804 75.7157C79.5804 63.3334 88.2514 48.2631 99.0209 42.0546C109.79 35.8461 118.444 40.8927 118.444 53.2749C118.444 65.6572 109.738 80.6409 99.0209 86.8494V86.9361Z" fill="#EBEBEB"/>
<path d="M71.0131 34.528L82.2508 41.014L72.1576 37.4935L60.9199 30.9902L71.0131 34.528Z" fill="#F0F0F0"/>
<path d="M60.919 31.008L51.0312 48.1478L62.2825 54.6385L72.1703 37.4987L60.919 31.008Z" fill="#F5F5F5"/>
<path d="M51.0176 48.1243L62.2726 54.6102L70.3714 61.5818L59.1164 55.1132L51.0176 48.1243Z" fill="#E0E0E0"/>
<path d="M55.6484 66.7672L66.9034 73.2532L54.0529 82.2884L42.7979 75.8025L55.6484 66.7672Z" fill="#F5F5F5"/>
<path d="M42.7979 75.8024L54.0529 82.2883V98.4512L42.7979 91.9653V75.8024Z" fill="#E0E0E0"/>
<path d="M106.01 8.44543L94.7551 1.95947L80.7773 10.0409L92.0151 16.5269L106.01 8.44543Z" fill="#F5F5F5"/>
<path d="M250.297 471.568L413.314 377.434C413.673 377.308 413.984 377.073 414.204 376.763C414.424 376.452 414.542 376.081 414.542 375.7C414.542 375.319 414.424 374.948 414.204 374.638C413.984 374.327 413.673 374.092 413.314 373.966L398.243 365.295C397.31 364.825 396.279 364.581 395.234 364.581C394.189 364.581 393.159 364.825 392.225 365.295L229.157 459.341C228.798 459.468 228.487 459.702 228.267 460.013C228.047 460.324 227.929 460.695 227.929 461.076C227.929 461.456 228.047 461.828 228.267 462.138C228.487 462.449 228.798 462.684 229.157 462.81L244.28 471.481C245.206 471.964 246.233 472.224 247.278 472.239C248.323 472.254 249.357 472.024 250.297 471.568Z" fill="#E0E0E0"/>
<path d="M408.839 13.9951L261.847 98.8676C259.662 100.294 257.843 102.214 256.539 104.474C255.234 106.734 254.48 109.269 254.338 111.874V460.573C254.338 465.359 257.702 467.301 261.847 464.908L408.839 380.036C411.027 378.613 412.848 376.693 414.153 374.433C415.458 372.172 416.21 369.635 416.348 367.029V18.3306C416.348 13.5442 413.001 11.6019 408.839 13.9951Z" fill="#455A64"/>
<path d="M261.847 98.8675L408.839 13.995C412.55 11.8446 415.62 13.1799 416.244 16.9085C415.898 14.5643 415.058 12.32 413.782 10.3234C412.506 8.32669 410.821 6.62286 408.839 5.32395L402.735 1.85552C400.408 0.674869 397.835 0.0595703 395.226 0.0595703C392.616 0.0595703 390.044 0.674869 387.716 1.85552L240.707 86.6586C238.493 88.047 236.667 89.9743 235.4 92.2602L256.54 104.4C257.807 102.132 259.634 100.227 261.847 98.8675Z" fill="#061232"/>
<path d="M233.163 448.364C233.305 450.969 234.059 453.504 235.364 455.764C236.669 458.024 238.487 459.944 240.672 461.371L246.794 464.839C248.913 465.899 251.232 466.499 253.599 466.601C255.965 466.703 258.327 466.303 260.529 465.429C257.061 466.781 254.303 464.787 254.303 460.503V111.874C254.39 109.258 255.149 106.708 256.506 104.469L235.366 92.3296C234.027 94.5512 233.27 97.074 233.163 99.6653V448.364Z" fill="#263238"/>
<path d="M265.888 145.327L404.85 65.1198C407.347 63.6977 409.359 64.8596 409.359 67.7211V325.807C409.276 327.371 408.824 328.893 408.04 330.25C407.257 331.606 406.164 332.758 404.85 333.611L265.94 413.818C263.442 415.258 261.431 414.096 261.431 411.217V153.131C261.51 151.572 261.954 150.053 262.728 148.698C263.503 147.342 264.585 146.187 265.888 145.327Z" fill="white"/>
<path d="M335.343 69.6461C334.576 70.1497 333.938 70.8263 333.48 71.6215C333.022 72.4167 332.757 73.3082 332.707 74.2244C332.707 75.9586 333.886 76.6003 335.343 75.7505C336.113 75.25 336.753 74.5742 337.212 73.7783C337.67 72.9825 337.933 72.0894 337.979 71.1722C337.979 69.49 336.8 68.8137 335.343 69.6461Z" fill="#061232"/>
<path d="M335.343 386.054C332.311 388.037 329.789 390.706 327.981 393.846C326.174 396.985 325.131 400.506 324.938 404.124C324.938 410.766 329.603 413.471 335.343 410.142C338.374 408.158 340.895 405.488 342.702 402.348C344.51 399.209 345.553 395.689 345.748 392.071C345.783 385.429 341.1 382.724 335.343 386.054Z" fill="#061232"/>
<path d="M310.387 96.4917C308.863 97.5034 307.598 98.8593 306.694 100.45C305.791 102.04 305.273 103.821 305.185 105.648C305.185 109.013 307.543 110.383 310.387 108.701C311.927 107.698 313.209 106.347 314.128 104.756C315.048 103.164 315.578 101.379 315.677 99.5439C315.677 96.1795 313.318 94.8095 310.387 96.4917Z" fill="#061232"/>
<path d="M323.342 95.347C323.342 97.6015 325.076 98.4513 327.105 97.2547L361.789 77.1898C362.864 76.5188 363.765 75.6037 364.418 74.5188C365.072 73.4339 365.461 72.21 365.553 70.9466C365.553 68.7095 363.818 67.8597 361.789 69.0563L327.105 89.1212C326.033 89.7905 325.133 90.7029 324.48 91.7846C323.826 92.8662 323.436 94.0867 323.342 95.347Z" fill="#061232"/>
<path d="M244.887 156.496C246.118 157.297 247.142 158.378 247.877 159.649C248.613 160.921 249.038 162.347 249.118 163.814C249.118 166.519 247.228 167.612 244.887 166.259C243.66 165.455 242.64 164.373 241.908 163.102C241.176 161.831 240.753 160.405 240.673 158.941C240.673 156.253 242.563 155.16 244.887 156.496Z" fill="#061232"/>
<path d="M244.887 189.064C246.118 189.866 247.142 190.946 247.877 192.218C248.613 193.489 249.038 194.916 249.118 196.382C249.118 199.071 247.228 200.163 244.887 198.828C243.66 198.023 242.64 196.942 241.908 195.671C241.176 194.399 240.753 192.974 240.673 191.509C240.673 188.804 242.563 187.711 244.887 189.064Z" fill="#061232"/>
<path d="M243.568 157.155C244.799 157.956 245.824 159.037 246.559 160.308C247.294 161.58 247.719 163.006 247.8 164.473C247.8 167.161 245.91 168.254 243.568 166.918C242.338 166.117 241.313 165.036 240.578 163.765C239.843 162.493 239.418 161.066 239.337 159.6C239.354 156.894 241.245 155.854 243.568 157.155Z" fill="#455A64"/>
<path d="M243.568 189.706C244.801 190.509 245.827 191.592 246.563 192.867C247.298 194.142 247.722 195.572 247.8 197.041C247.8 199.729 245.91 200.822 243.568 199.469C242.335 198.671 241.308 197.591 240.573 196.319C239.837 195.047 239.414 193.618 239.337 192.151C239.354 189.463 241.245 188.37 243.568 189.706Z" fill="#455A64"/>
<path d="M437.488 75.8893C437.488 73.0105 435.476 71.8486 432.979 73.288L416.348 82.8782L294.069 153.495C292.755 154.349 291.662 155.501 290.878 156.857C290.095 158.213 289.643 159.735 289.56 161.299V419.316C289.56 422.195 291.571 423.357 294.069 421.917L416.4 351.283L432.979 341.71C434.293 340.856 435.386 339.705 436.169 338.348C436.953 336.992 437.405 335.47 437.488 333.906V75.8893Z" fill="white"/>
<path d="M439.223 75.8891C439.332 75.0194 439.182 74.1369 438.793 73.3518C438.403 72.5668 437.79 71.9141 437.031 71.4755C436.272 71.0368 435.401 70.8317 434.526 70.8857C433.651 70.9397 432.812 71.2504 432.113 71.779L416.245 80.953L293.202 152.056C291.618 153.056 290.301 154.426 289.364 156.048C288.428 157.671 287.9 159.497 287.826 161.369V419.316C287.756 420.182 287.923 421.05 288.308 421.829C288.692 422.607 289.281 423.267 290.011 423.738C290.632 424.099 291.339 424.285 292.057 424.276C293.074 424.244 294.065 423.951 294.936 423.426L418.065 352.323L433.899 343.184C435.474 342.174 436.784 340.801 437.72 339.181C438.655 337.561 439.188 335.74 439.275 333.871L439.223 75.8891ZM416.279 349.357L414.857 350.19L293.271 420.391C293.067 420.548 292.83 420.657 292.578 420.711C292.326 420.765 292.065 420.763 291.815 420.703C291.589 420.564 291.364 420.079 291.364 419.281V161.299C291.454 160.04 291.828 158.818 292.459 157.724C293.09 156.631 293.961 155.695 295.006 154.987L416.47 84.751L433.812 74.7099C434.017 74.5529 434.253 74.4434 434.505 74.3894C434.757 74.3354 435.018 74.3382 435.269 74.3977C435.494 74.5364 435.72 75.022 435.72 75.8198V333.906C435.63 335.165 435.256 336.387 434.625 337.481C433.994 338.574 433.123 339.51 432.078 340.218L416.245 349.357H416.279Z" fill="#00BFBA"/>
<path d="M363.524 135.841C379.132 126.858 391.705 134.107 391.705 152.125C391.705 170.144 379.08 192.012 363.524 200.926C347.968 209.84 335.343 202.66 335.343 184.659C335.343 166.658 347.968 144.842 363.524 135.841Z" fill="#00BFBA"/>
<path d="M363.524 149.992C368.571 147.079 372.663 149.437 372.663 155.195C372.492 158.367 371.575 161.453 369.987 164.204C368.399 166.956 366.185 169.293 363.524 171.028C358.478 173.942 354.385 171.583 354.385 165.826C354.556 162.654 355.473 159.567 357.061 156.816C358.649 154.065 360.863 151.727 363.524 149.992Z" fill="#00BFBA"/>
<path d="M381.334 181.069C381.334 171.496 374.623 167.612 366.316 172.398L361.113 175.398C352.823 180.185 346.095 191.839 346.095 201.412V203.996C350.899 205.574 356.934 204.724 363.437 200.926C370.641 196.482 376.733 190.449 381.247 183.289L381.334 181.069Z" fill="#00BFBA"/>
<path opacity="0.7" d="M363.524 149.992C368.571 147.079 372.663 149.437 372.663 155.195C372.492 158.367 371.575 161.453 369.987 164.204C368.399 166.956 366.185 169.293 363.524 171.028C358.478 173.942 354.385 171.583 354.385 165.826C354.556 162.654 355.473 159.567 357.061 156.816C358.649 154.065 360.863 151.727 363.524 149.992Z" fill="white"/>
<path opacity="0.7" d="M381.334 181.069C381.334 171.496 374.623 167.612 366.316 172.398L361.113 175.398C352.823 180.185 346.095 191.839 346.095 201.412V203.996C350.899 205.574 356.934 204.724 363.437 200.926C370.641 196.482 376.733 190.449 381.247 183.289L381.334 181.069Z" fill="white"/>
<path d="M309 240.553L345.263 219.621C346.997 218.667 348.263 219.43 348.263 221.355V222.552C348.208 223.594 347.908 224.608 347.386 225.513C346.865 226.417 346.137 227.185 345.263 227.754L309 248.686C307.353 249.64 306 248.86 306 246.952V245.755C306.056 244.714 306.357 243.7 306.878 242.796C307.4 241.892 308.127 241.123 309 240.553Z" fill="#00BFBA"/>
<path opacity="0.1" d="M309 240.553L345.263 219.621C346.997 218.667 348.263 219.43 348.263 221.355V222.552C348.208 223.594 347.908 224.608 347.386 225.513C346.865 226.417 346.137 227.185 345.263 227.754L309 248.686C307.353 249.64 306 248.86 306 246.952V245.755C306.056 244.714 306.357 243.7 306.878 242.796C307.4 241.892 308.127 241.123 309 240.553Z" fill="black"/>
<path d="M307.509 265.82L417.215 202.487C418.03 202.001 418.707 202.383 418.707 203.354V216.152C418.676 216.672 418.526 217.177 418.267 217.628C418.008 218.08 417.648 218.465 417.215 218.754L307.509 282.087C306.676 282.573 306 282.174 306 281.22V268.422C306.03 267.9 306.182 267.393 306.444 266.941C306.706 266.489 307.071 266.105 307.509 265.82Z" fill="#00BFBA"/>
<path opacity="0.2" d="M307.509 265.82L417.215 202.487C418.03 202.001 418.707 202.383 418.707 203.354V216.152C418.676 216.672 418.526 217.177 418.267 217.628C418.008 218.08 417.648 218.465 417.215 218.754L307.509 282.087C306.676 282.573 306 282.174 306 281.22V268.422C306.03 267.9 306.182 267.393 306.444 266.941C306.706 266.489 307.071 266.105 307.509 265.82Z" fill="white"/>
<path d="M309 297.487L345.263 276.555C346.997 275.601 348.263 276.382 348.263 278.289V279.486C348.209 280.529 347.909 281.544 347.388 282.448C346.866 283.352 346.138 284.12 345.263 284.689L309 305.621C307.353 306.592 306 305.811 306 303.886V302.69C306.059 301.649 306.361 300.636 306.882 299.732C307.403 298.829 308.129 298.06 309 297.487Z" fill="#00BFBA"/>
<path opacity="0.1" d="M309 297.487L345.263 276.555C346.997 275.601 348.263 276.382 348.263 278.289V279.486C348.209 280.529 347.909 281.544 347.388 282.448C346.866 283.352 346.138 284.12 345.263 284.689L309 305.621C307.353 306.592 306 305.811 306 303.886V302.69C306.059 301.649 306.361 300.636 306.882 299.732C307.403 298.829 308.129 298.06 309 297.487Z" fill="black"/>
<path d="M307.509 322.755L417.215 259.421C418.03 258.936 418.707 259.335 418.707 260.288V273.087C418.676 273.606 418.526 274.111 418.267 274.563C418.008 275.014 417.648 275.399 417.215 275.688L307.509 339.022C306.676 339.507 306 339.126 306 338.155V325.356C306.03 324.834 306.182 324.327 306.444 323.875C306.706 323.423 307.071 323.04 307.509 322.755Z" fill="#00BFBA"/>
<path opacity="0.2" d="M307.509 322.755L417.215 259.421C418.03 258.936 418.707 259.335 418.707 260.288V273.087C418.676 273.606 418.526 274.111 418.267 274.563C418.008 275.014 417.648 275.399 417.215 275.688L307.509 339.022C306.676 339.507 306 339.126 306 338.155V325.356C306.03 324.834 306.182 324.327 306.444 323.875C306.706 323.423 307.071 323.04 307.509 322.755Z" fill="white"/>
<path d="M351.263 330.021L394.618 305.031C396.352 304.06 397.636 304.84 397.636 306.765V320.153C397.579 321.197 397.276 322.213 396.751 323.117C396.227 324.021 395.496 324.788 394.618 325.356L351.263 350.363C349.529 351.317 348.263 350.537 348.263 348.629V335.224C348.323 334.183 348.626 333.17 349.147 332.267C349.667 331.364 350.392 330.595 351.263 330.021Z" fill="#00BFBA"/>
<path opacity="0.1" d="M351.263 330.021L394.618 305.031C396.352 304.06 397.636 304.84 397.636 306.765V320.153C397.579 321.197 397.276 322.213 396.751 323.117C396.227 324.021 395.496 324.788 394.618 325.356L351.263 350.363C349.529 351.317 348.263 350.537 348.263 348.629V335.224C348.323 334.183 348.626 333.17 349.147 332.267C349.667 331.364 350.392 330.595 351.263 330.021Z" fill="black"/>
<path d="M453.928 273.52C453.928 273.52 432.632 244.143 431.383 240.57C430.395 237.934 431.383 234.015 431.695 232.194C432.008 230.373 432.285 226.315 432.597 225.257C433.117 223.28 430.568 223.679 429.129 225.483C427.689 227.286 427.204 230.893 426.458 231.483C425.712 232.073 420.041 223.8 417.076 219.985C414.11 216.17 412.255 213.846 410.434 215.268C409.133 216.291 410.104 218.511 412.255 221.771C413.511 223.527 414.669 225.351 415.723 227.234C416.053 227.945 414.284 227.997 413.33 229.471C412.584 230.616 413.33 232.471 412.29 233.356C411.649 233.843 411.21 234.549 411.057 235.339C410.903 236.129 411.046 236.948 411.457 237.639C413.387 240.671 415.877 243.308 418.793 245.409C421.984 247.611 423.267 248.391 425.157 251.392C427.048 254.392 444.008 285.035 445.153 286.874C446.297 288.712 448.5 292.458 451.847 292.562C455.194 292.666 482.595 269.081 483.999 267.901C488.508 264.138 489.948 263.601 490.711 266.982C490.974 268.184 491.171 269.4 491.3 270.624C491.838 274.925 494.769 290.29 494.769 290.29C494.769 290.29 508.642 297.002 520.036 293.759C531.43 290.516 535.28 285.677 535.28 285.677L529.574 276.382C531.118 272.549 538.245 257.011 540.552 246.137L504.827 240.362C504.099 240.206 502.92 239.911 501.359 239.512C499.399 238.992 494.422 237.275 490.659 240.57C478.38 251.27 453.963 273.52 453.963 273.52" fill="#FFA8A7"/>
<path d="M524.754 453.775L518.354 462.671C521.263 464.029 524.441 464.711 527.65 464.665C533.39 464.874 534.968 462.931 535.176 462.55C536.148 460.469 534.639 456.723 534.223 453.497L524.754 453.775Z" fill="#37474F"/>
<path d="M518.718 458.405C518.718 458.405 510.949 457.902 505.59 457.243C500.232 456.584 495.983 459.185 497.231 461.388C498.48 463.59 501.445 465.428 506.058 466.972C509.995 468.307 514.73 469.261 518.822 470.44C522.915 471.62 525.759 473.163 528.135 472.331C530.788 471.411 531.933 470.354 531.708 468.411C531.128 465.648 530.411 462.917 529.557 460.226L518.718 458.405Z" fill="#37474F"/>
<path d="M535.176 444.843C535.176 444.843 534.205 452.925 534.136 454.659C534.066 456.393 526.245 456.948 524.754 453.774L524.511 443.889L535.176 444.843Z" fill="#F28F8F"/>
<path d="M527.303 449.803L530.095 462.081C530.095 462.081 530.355 463.573 523.973 464.527C517.591 465.481 507.568 461.18 505.851 460.313C504.134 459.445 503.943 457.694 510.221 458.041C516.499 458.388 518.719 458.405 518.719 458.405L516.672 452.977L527.303 449.803Z" fill="#FFA8A7"/>
<path d="M540.448 246.033L544.87 244.802C544.87 244.802 554.113 274.058 555.136 276.885C556.16 279.711 557.322 282.694 555.327 286.18C552.951 290.325 540.448 306.991 540.448 306.991L532.505 299.221L541.523 282.712L533.545 266.583L540.448 246.033Z" fill="#F28F8F"/>
<path d="M495.029 208.036C493.992 206.09 493.466 203.913 493.5 201.708C493.533 199.503 494.125 197.343 495.22 195.429C499.625 187.26 509.44 183.289 521.129 184.798C526.54 185.509 532.922 190.001 536.407 196.712C540.257 204.152 540.622 219.135 541.61 224.806L495.029 208.036Z" fill="#37474F"/>
<path d="M494.716 211.245C494.716 211.245 491.942 216.534 492.427 217.02C493.146 217.44 493.932 217.733 494.751 217.887L494.716 211.245Z" fill="#FFA8A7"/>
<path d="M503.145 194.527C500.128 196.487 494.925 200.094 494.7 211.973C494.457 224.113 496.191 228.119 497.995 229.523C499.209 230.477 506.336 229.992 509.388 229.281C512.441 228.569 521.233 224.217 524.407 217.609C528.135 209.84 527.372 198.533 521.84 195.064C519.024 193.399 515.832 192.477 512.562 192.383C509.292 192.289 506.052 193.026 503.145 194.527Z" fill="#FFA8A7"/>
<path d="M535.176 285.608C540.518 293.932 545.581 301.216 546.691 310.615C548.981 330.368 541.489 352.947 539.876 367.567C542.909 371.725 544.657 376.681 544.905 381.822C544.905 387.874 535.176 444.843 535.176 444.843C535.176 444.843 528.101 446.994 524.511 443.89L517.834 339.091L521.302 326.327L535.176 285.608Z" fill="#00BFBA"/>
<path opacity="0.2" d="M535.176 285.608C540.518 293.932 545.581 301.216 546.691 310.615C548.981 330.368 541.489 352.947 539.876 367.567C542.909 371.725 544.657 376.681 544.905 381.822C544.905 387.874 535.176 444.843 535.176 444.843C535.176 444.843 528.101 446.994 524.511 443.89L517.834 339.091L521.302 326.327L535.176 285.608Z" fill="black"/>
<path d="M517.834 339.091L521.302 326.327C527.943 324.579 534.349 322.034 540.379 318.749C540.379 318.749 536.772 325.321 526.401 328.928L521.042 345.317L520.591 382.863L517.834 339.091Z" fill="#00BFBA"/>
<path opacity="0.3" d="M517.834 339.091L521.302 326.327C527.943 324.579 534.349 322.034 540.379 318.749C540.379 318.749 536.772 325.321 526.401 328.928L521.042 345.317L520.591 382.863L517.834 339.091Z" fill="black"/>
<path d="M535.176 285.608C538.037 290.29 544.87 298.268 543.413 305.95C541.679 315.245 536.65 321.783 521.354 326.327L506.995 378.354C506.995 378.354 514.469 385.29 516.758 392.002C519.047 398.713 527.302 449.838 527.302 449.838C527.302 449.838 524.736 454.017 516.672 453.012C516.672 453.012 488.56 388.846 486.583 384.666C484.183 380.433 483.343 375.494 484.207 370.706C485.091 363.977 494.612 290.325 494.612 290.325L535.176 285.608Z" fill="#00BFBA"/>
<path opacity="0.2" d="M535.176 285.608C538.037 290.29 544.87 298.268 543.413 305.95C541.679 315.245 536.65 321.783 521.354 326.327L506.995 378.354C506.995 378.354 514.469 385.29 516.758 392.002C519.047 398.713 527.302 449.838 527.302 449.838C527.302 449.838 524.736 454.017 516.672 453.012C516.672 453.012 488.56 388.846 486.583 384.666C484.183 380.433 483.343 375.494 484.207 370.706C485.091 363.977 494.612 290.325 494.612 290.325L535.176 285.608Z" fill="black"/>
<path d="M540.448 246.033L504.723 240.258C503.995 240.102 502.816 239.807 501.255 239.408C501.255 239.408 499.729 261.814 490.555 266.948C490.78 268.023 490.971 269.219 491.144 270.59C491.682 274.89 494.613 290.256 494.613 290.256C494.613 290.256 508.486 296.967 519.88 293.724C531.274 290.481 535.124 285.642 535.124 285.642L529.418 276.347C531.014 272.48 538.194 256.941 540.448 246.033Z" fill="#00BFBA"/>
<path opacity="0.7" d="M540.448 246.033L504.723 240.258C503.995 240.102 502.816 239.807 501.255 239.408C501.255 239.408 499.729 261.814 490.555 266.948C490.78 268.023 490.971 269.219 491.144 270.59C491.682 274.89 494.613 290.256 494.613 290.256C494.613 290.256 508.486 296.967 519.88 293.724C531.274 290.481 535.124 285.642 535.124 285.642L529.418 276.347C531.014 272.48 538.194 256.941 540.448 246.033Z" fill="white"/>
<path d="M531.031 272.653C526.287 275.502 521.316 277.956 516.169 279.989C520.841 279.896 525.414 278.632 529.47 276.312L531.031 272.653Z" fill="#00BFBA"/>
<path d="M502.26 195.116C502.26 195.116 500.526 206.389 504.619 213.014C504.619 213.014 506.145 208.522 509.943 209.372C513.741 210.221 513.949 215.233 511.278 218.043C510.599 218.831 509.712 219.412 508.718 219.718C507.725 220.025 506.664 220.045 505.659 219.777C505.659 219.777 505.052 227.928 504.723 234.761C504.393 241.593 502.59 256.49 510.272 262.508C517.955 268.526 537.239 270.642 546.275 258.016C551.304 250.993 544.627 238.576 541.523 224.65C538.662 211.852 537.049 192.879 523.47 189.827C509.891 186.775 502.26 195.116 502.26 195.116Z" fill="#37474F"/>
<path d="M552.084 41.1007L549.223 42.835C549.463 41.8168 549.597 40.7765 549.622 39.7307C549.622 33.9211 545.546 31.5799 540.517 34.5281C538.987 35.4513 537.621 36.6235 536.476 37.9965C536.476 30.1925 530.996 27.0189 524.233 30.9209C520.669 33.2452 517.703 36.3769 515.576 40.062C513.448 43.747 512.22 47.8816 511.989 52.1304C511.989 52.5292 511.989 52.9107 511.989 53.2923C510.247 53.073 508.484 53.4786 507.012 54.4368C504.362 56.1637 502.157 58.4911 500.575 61.2301C498.993 63.9691 498.079 67.0425 497.907 70.2009C497.907 70.9351 497.982 71.6674 498.133 72.386L496.607 73.2704C492.462 75.6637 489.098 80.3287 489.098 83.6757C489.098 87.0228 492.462 87.8205 496.607 85.4099L552.102 53.4137C556.246 51.0205 559.611 46.3554 559.611 43.0084C559.611 39.6613 556.229 38.6902 552.084 41.1007Z" fill="#EBEBEB"/>
</svg>
