<svg width="114" height="48" viewBox="0 0 114 48" fill="none" xmlns="http://www.w3.org/2000/svg">
<g clip-path="url(#clip0_657_1475)">
<rect width="48" height="48" rx="2.66667" fill="#061232"/>
<rect x="12" y="12" width="24" height="24" rx="2.66667" fill="white"/>
<rect x="18" y="18" width="12" height="12" rx="2.66667" fill="#061232"/>
<rect x="21.334" y="21.333" width="5.33333" height="5.33333" rx="0.666667" fill="white"/>
<rect width="5.33333" height="5.33333" transform="translate(42.666 42.667)" fill="white"/>
</g>
<path d="M65.3633 16.8574H67.1797V30.5H65.2168V19.8848L61.0176 25.1582H60.6562L56.418 19.8848V30.5H54.4648V16.8574H56.3008L60.8418 22.4629L65.3633 16.8574ZM70.8027 17.7363C71.0957 17.7363 71.3464 17.8372 71.5547 18.0391C71.763 18.2409 71.8672 18.4883 71.8672 18.7812C71.8672 19.0677 71.763 19.3151 71.5547 19.5234C71.3464 19.7318 71.0957 19.8359 70.8027 19.8359C70.5293 19.8359 70.2884 19.7318 70.0801 19.5234C69.8717 19.3086 69.7676 19.0612 69.7676 18.7812C69.7676 18.5078 69.8717 18.2669 70.0801 18.0586C70.2884 17.8438 70.5293 17.7363 70.8027 17.7363ZM69.9238 21.5156H71.7012V30.5H69.9238V21.5156Z" fill="#061232"/>
<path d="M88.2832 31.3594L86.3203 33.2637C85.7083 33.2311 85.0671 33.1204 84.3965 32.9316C83.7324 32.7493 83.0553 32.4954 82.3652 32.1699C81.6816 31.8444 80.7669 31.2878 79.6211 30.5C77.9609 30.2005 76.5905 29.4128 75.5098 28.1367C74.4355 26.8607 73.8984 25.3893 73.8984 23.7227C73.8984 21.6849 74.5918 19.9987 75.9785 18.6641C77.3652 17.3294 79.1198 16.6621 81.2422 16.6621C83.3516 16.6621 85.1029 17.3262 86.4961 18.6543C87.8958 19.9759 88.5957 21.6393 88.5957 23.6445C88.5957 25.3307 88.0684 26.8118 87.0137 28.0879C85.959 29.3639 84.5951 30.168 82.9219 30.5L83.4395 30.6953C85.0475 31.3138 86.2064 31.623 86.916 31.623C87.3066 31.623 87.7624 31.5352 88.2832 31.3594ZM81.2422 18.5176C79.7057 18.5176 78.4362 19.0124 77.4336 20.002C76.431 20.9915 75.9297 22.2383 75.9297 23.7422C75.9297 25.207 76.4342 26.4277 77.4434 27.4043C78.4525 28.3743 79.7188 28.8594 81.2422 28.8594C82.7461 28.8594 84.0124 28.3613 85.041 27.3652C86.0697 26.3691 86.584 25.1419 86.584 23.6836C86.584 22.1927 86.0794 20.959 85.0703 19.9824C84.0612 19.0059 82.7852 18.5176 81.2422 18.5176ZM91.0469 30.5V16.8574H94.4648C95.8451 16.8574 96.9388 17.1992 97.7461 17.8828C98.5599 18.5664 98.9668 19.4909 98.9668 20.6562C98.9668 21.4505 98.7682 22.1374 98.3711 22.7168C97.974 23.2962 97.4043 23.7292 96.6621 24.0156C97.0983 24.3021 97.5247 24.6927 97.9414 25.1875C98.3581 25.6823 98.944 26.5449 99.6992 27.7754C100.174 28.5501 100.555 29.1328 100.842 29.5234L101.564 30.5H99.2402L98.6445 29.6016C98.625 29.569 98.5859 29.5137 98.5273 29.4355L98.1465 28.8984L97.541 27.9023L96.8867 26.8379C96.4831 26.278 96.112 25.832 95.7734 25.5C95.4414 25.168 95.1387 24.9303 94.8652 24.7871C94.5983 24.6374 94.1458 24.5625 93.5078 24.5625H93V30.5H91.0469ZM93.5859 18.5176H93V22.8242H93.7422C94.7318 22.8242 95.4089 22.7396 95.7734 22.5703C96.1445 22.401 96.431 22.1471 96.6328 21.8086C96.8411 21.4635 96.9453 21.0729 96.9453 20.6367C96.9453 20.207 96.8314 19.8197 96.6035 19.4746C96.3757 19.123 96.0534 18.8757 95.6367 18.7324C95.2266 18.5892 94.543 18.5176 93.5859 18.5176Z" fill="#00BFBA"/>
<defs>
<clipPath id="clip0_657_1475">
<rect width="48" height="48" rx="2.66667" fill="white"/>
</clipPath>
</defs>
</svg>
