<svg width="24" height="24" viewBox="0 0 24 24" fill="none" xmlns="http://www.w3.org/2000/svg">
<path d="M15.8604 4.39V19.39C15.8604 21.06 17.0004 22 18.2504 22C19.3904 22 20.6404 21.21 20.6404 19.39V4.5C20.6404 2.96 19.5004 2 18.2504 2C17.0004 2 15.8604 3.06 15.8604 4.39ZM9.61035 12V19.39C9.61035 21.07 10.7704 22 12.0004 22C13.1404 22 14.3904 21.21 14.3904 19.39V12.11C14.3904 10.57 13.2504 9.61 12.0004 9.61C10.7504 9.61 9.61035 10.67 9.61035 12ZM5.75035 17.23C7.07035 17.23 8.14035 18.3 8.14035 19.61C8.14035 20.2439 7.88855 20.8518 7.44034 21.3C6.99213 21.7482 6.38422 22 5.75035 22C5.11648 22 4.50858 21.7482 4.06037 21.3C3.61215 20.8518 3.36035 20.2439 3.36035 19.61C3.36035 18.3 4.43035 17.23 5.75035 17.23Z" fill="#BFBFBF"/>
</svg>
