<svg version="1.1" xmlns="http://www.w3.org/2000/svg" xmlns:xlink="http://www.w3.org/1999/xlink" viewBox="0 0 226 226"><g transform=""><g fill="none" fill-rule="none" stroke="none" stroke-width="1" stroke-linecap="butt" stroke-linejoin="miter" stroke-miterlimit="10" stroke-dasharray="" stroke-dashoffset="0" font-family="none" font-weight="none" font-size="none" text-anchor="none" style="mix-blend-mode: normal"><path d="M0,226v-226h226v226z" fill-rule="nonzero"></path><g fill="#000000" fill-rule="evenodd"><path d="M13346.25144,138.51949c7294.40415,0 13207.73195,5913.27566 13207.73195,13207.73195c0,7294.40415 -5913.27566,13207.73195 -13207.73195,13207.73195c-7294.40415,0 -13207.73195,-5913.27566 -13207.73195,-13207.73195c0,-7294.40415 5913.27566,-13207.73195 13207.73195,-13207.73195zM13346.25144,1864.40877c6341.29412,0 11481.79054,5140.49642 11481.79054,11481.79054c0,6341.29412 -5140.49642,11481.79054 -11481.79054,11481.79054c-6341.29412,0 -11481.79054,-5140.49642 -11481.79054,-11481.79054c0,-6341.29412 5140.49642,-11481.79054 11481.79054,-11481.79054z"></path><path d="M67.20046,80.70311h89.46159v13.45052h-89.46159zM67.20046,107.34348h89.46159v0.05213v13.34625v0.05213h-89.46159v-0.05213v-13.34625zM67.20046,134.03599h89.46159v13.45052h-89.46159z"></path></g><path d="" fill="none" fill-rule="nonzero"></path><path d="" fill="none" fill-rule="nonzero"></path><path d="" fill="none" fill-rule="nonzero"></path></g></g></svg>