<svg width="40" height="40" viewBox="0 0 40 40" fill="none" xmlns="http://www.w3.org/2000/svg">
<rect width="40" height="40" rx="8" fill="#CCFAF9"/>
<path d="M15.58 12.08L14.15 10.65C11.75 12.48 10.17 15.3 10.03 18.5H12.03C12.18 15.85 13.54 13.53 15.58 12.08ZM27.97 18.5H29.97C29.82 15.3 28.24 12.48 25.85 10.65L24.43 12.08C26.45 13.53 27.82 15.85 27.97 18.5ZM26 19C26 15.93 24.36 13.36 21.5 12.68V12C21.5 11.17 20.83 10.5 20 10.5C19.17 10.5 18.5 11.17 18.5 12V12.68C15.63 13.36 14 15.92 14 19V24L12 26V27H28V26L26 24V19ZM20 30C20.14 30 20.27 29.99 20.4 29.96C21.05 29.82 21.58 29.38 21.84 28.78C21.94 28.54 21.99 28.28 21.99 28H17.99C18 29.1 18.89 30 20 30Z" fill="#061232"/>
</svg>
